<svg width="14" height="16" viewBox="0 0 14 16" fill="none" xmlns="http://www.w3.org/2000/svg">
<g id="user_2_line">
<path fill-rule="evenodd" clip-rule="evenodd" d="M7 0C4.85223 0 3.11111 1.79086 3.11111 4C3.11111 6.20914 4.85223 8 7 8C9.14777 8 10.8889 6.20914 10.8889 4C10.8889 1.79086 9.14777 0 7 0ZM4.66667 4C4.66667 2.67452 5.71134 1.6 7 1.6C8.28866 1.6 9.33333 2.67452 9.33333 4C9.33333 5.32548 8.28866 6.4 7 6.4C5.71134 6.4 4.66667 5.32548 4.66667 4Z" fill="white"/>
<path fill-rule="evenodd" clip-rule="evenodd" d="M3.88889 9.6C1.74111 9.6 0 11.3909 0 13.6V14.4C0 15.2837 0.696446 16 1.55556 16H12.4444C13.3036 16 14 15.2837 14 14.4V13.6C14 11.3909 12.2589 9.6 10.1111 9.6H3.88889ZM1.55556 13.6C1.55556 12.2745 2.60022 11.2 3.88889 11.2H10.1111C11.3998 11.2 12.4444 12.2745 12.4444 13.6V14.4H1.55556V13.6Z" fill="white"/>
</g>
</svg>
